<?xml version="1.0" standalone="no"?>
<!DOCTYPE svg PUBLIC "-//W3C//DTD SVG 20010904//EN"
 "http://www.w3.org/TR/2001/REC-SVG-20010904/DTD/svg10.dtd">
<svg version="1.0" xmlns="http://www.w3.org/2000/svg"
 width="512.000000pt" height="512.000000pt" viewBox="0 0 512.000000 512.000000"
 preserveAspectRatio="xMidYMid meet">
<metadata>
Created by potrace 1.11, written by Peter Selinger 2001-2013
</metadata>
<g transform="translate(0.000000,512.000000) scale(0.100000,-0.100000)"
fill="#000000" stroke="none">
<path d="M875 3238 c-2 -7 -6 -33 -7 -58 l-3 -45 -55 -5 -55 -5 -5 -55 -5 -55
-55 -5 -55 -5 -3 -179 c-2 -123 1 -183 9 -192 7 -8 31 -14 60 -14 l49 0 0 -48
c0 -26 5 -53 12 -60 7 -7 34 -12 60 -12 l48 0 0 -48 c0 -26 5 -53 12 -60 9 -9
93 -12 315 -12 l303 0 0 238 c0 220 -1 240 -19 256 -16 14 -41 16 -192 14
l-174 -3 -3 -58 c-4 -74 6 -87 70 -87 l49 0 -3 -102 -3 -103 -102 -3 -103 -3
0 44 c0 56 -22 77 -78 77 l-42 0 0 165 0 165 60 0 60 0 0 60 0 60 240 0 240 0
0 58 c0 95 12 92 -329 92 -224 0 -293 -3 -296 -12z"/>
<path d="M1855 3238 c-2 -7 -6 -33 -7 -58 l-3 -45 -55 -5 -55 -5 -5 -55 -5
-55 -55 -5 -55 -5 -3 -299 c-2 -212 1 -303 9 -312 9 -11 43 -14 135 -14 l124
0 0 120 0 120 165 0 165 0 0 -108 c0 -71 4 -112 12 -120 8 -8 53 -12 135 -12
l123 0 0 298 c0 339 2 332 -78 332 l-42 0 0 43 c0 56 -22 77 -78 77 l-42 0 0
43 c0 74 -9 77 -209 77 -128 0 -173 -3 -176 -12z m235 -186 c0 -26 5 -53 12
-60 7 -7 34 -12 60 -12 l49 0 -3 -102 -3 -103 -162 -3 -163 -2 0 105 0 105 60
0 60 0 0 60 0 60 45 0 45 0 0 -48z"/>
<path d="M2597 3243 c-4 -3 -7 -194 -7 -423 0 -310 3 -419 12 -428 8 -8 53
-12 135 -12 l123 0 0 240 0 240 45 0 45 0 0 -108 c0 -71 4 -112 12 -120 7 -7
39 -12 75 -12 l63 0 0 120 0 120 45 0 45 0 0 -228 c0 -164 3 -231 12 -240 8
-8 53 -12 135 -12 l123 0 0 418 c0 396 -1 420 -19 436 -15 14 -37 16 -132 14
l-114 -3 -5 -55 -5 -55 -55 -5 -55 -5 -5 -55 -5 -55 -42 -3 -43 -3 0 44 c0 56
-22 77 -78 77 l-42 0 0 43 c0 69 -16 77 -147 77 -60 0 -113 -3 -116 -7z"/>
<path d="M3577 3243 c-4 -3 -7 -194 -7 -423 0 -310 3 -419 12 -428 9 -9 119
-12 435 -12 l423 0 0 58 c0 95 11 92 -318 92 l-282 0 0 105 0 105 240 0 240 0
0 58 c0 93 3 92 -258 92 l-222 0 0 105 0 105 300 0 300 0 0 58 c0 98 28 92
-447 92 -225 0 -413 -3 -416 -7z"/>
<path d="M2013 2548 c-35 -38 -46 -103 -52 -303 l-6 -190 -43 -58 c-48 -64
-93 -97 -133 -97 -54 0 -75 73 -37 129 23 35 45 40 40 10 -4 -21 31 -51 51
-44 37 15 27 78 -19 114 -70 55 -154 -10 -154 -119 0 -154 153 -202 278 -87
l22 20 0 -21 c0 -12 11 -29 24 -37 35 -23 60 -7 95 63 16 31 37 68 48 80 l19
24 -1 -60 c0 -65 17 -96 64 -113 29 -12 81 4 106 31 17 19 18 19 47 -5 34 -29
98 -34 118 -10 17 20 25 19 61 -7 28 -21 32 -21 72 -8 31 11 50 28 77 66 19
29 43 57 53 63 17 11 18 8 15 -45 -3 -50 0 -58 22 -76 36 -27 56 -15 89 51 16
31 38 67 50 81 l20 25 1 -53 c0 -64 11 -87 51 -108 38 -19 79 -11 109 21 l23
24 29 -24 c20 -17 42 -25 69 -25 37 0 39 -2 39 -30 0 -17 -16 -54 -40 -91 -54
-84 -82 -161 -88 -246 -5 -83 7 -112 57 -133 42 -17 84 1 106 46 19 40 35 167
35 276 l0 77 56 78 c31 43 59 79 63 81 4 1 13 -9 19 -23 14 -31 75 -59 108
-51 32 8 86 58 109 99 10 19 27 39 37 46 18 11 19 9 16 -45 -3 -50 0 -58 22
-76 36 -27 56 -15 89 51 16 31 38 67 50 81 l20 25 1 -53 c0 -64 11 -87 51
-108 39 -20 78 -11 113 25 l27 28 29 -28 c22 -23 38 -29 69 -29 39 0 41 -2 41
-30 0 -17 -16 -54 -40 -91 -54 -84 -82 -161 -88 -246 -5 -83 7 -112 57 -133
42 -17 84 1 106 46 19 40 35 167 35 276 l0 77 56 78 c59 82 94 144 94 165 0 7
-9 19 -21 26 -27 17 -39 7 -86 -76 l-38 -67 -3 55 c-3 59 -14 80 -43 80 -12 0
-25 -15 -38 -45 -11 -25 -27 -48 -36 -51 -45 -17 -42 56 3 101 27 27 59 30
104 10 26 -11 35 21 13 45 -10 11 -32 24 -51 30 -28 9 -40 8 -76 -8 -49 -23
-111 -80 -150 -140 -41 -62 -58 -56 -58 22 0 135 -85 159 -162 46 l-17 -25 0
42 c-1 33 -7 46 -27 62 -36 28 -48 26 -76 -9 -13 -17 -35 -44 -50 -61 -16 -16
-28 -34 -28 -39 0 -18 -72 -90 -90 -90 -26 0 -32 29 -25 118 6 72 5 78 -15 90
-28 17 -50 0 -50 -38 0 -15 -9 -35 -20 -45 -11 -10 -37 -48 -58 -84 l-37 -66
-3 55 c-3 59 -14 80 -43 80 -12 0 -25 -15 -38 -45 -11 -25 -27 -48 -36 -51
-45 -17 -42 56 3 101 27 27 59 30 104 10 26 -11 35 21 13 45 -10 11 -32 24
-51 30 -63 21 -136 -30 -216 -149 -41 -61 -58 -55 -58 23 0 135 -85 159 -162
46 l-17 -25 0 42 c-1 33 -7 46 -27 62 -36 28 -48 27 -78 -11 -14 -18 -35 -44
-46 -58 -11 -14 -35 -45 -53 -70 -18 -25 -43 -46 -54 -48 -18 -3 -23 3 -29 35
-14 78 -53 86 -83 18 -11 -25 -27 -48 -36 -51 -43 -17 -43 54 1 101 25 27 60
31 106 10 26 -11 35 21 13 45 -10 11 -34 24 -53 30 -63 17 -137 -31 -215 -140
-18 -25 -41 -46 -50 -48 -15 -3 -17 6 -17 66 0 59 -3 72 -23 90 -45 43 -93 20
-146 -68 -35 -59 -23 -14 18 68 94 188 115 383 49 458 -35 40 -66 43 -95 12z
m63 -142 c-5 -73 -30 -193 -41 -205 -13 -12 -14 16 -5 126 10 129 23 179 41
167 8 -5 10 -32 5 -88z m1174 -886 c-13 -75 -32 -112 -49 -94 -15 13 3 112 32
179 l22 50 3 -34 c2 -18 -2 -64 -8 -101z m990 0 c-13 -75 -32 -112 -49 -94
-15 13 3 112 32 179 l22 50 3 -34 c2 -18 -2 -64 -8 -101z"/>
<path d="M3458 2289 c-24 -13 -23 -61 1 -83 12 -11 31 -16 53 -14 29 3 33 7
36 34 2 25 -3 37 -24 53 -30 23 -41 25 -66 10z"/>
</g>
</svg>
