<?xml version="1.0" standalone="no"?>
<!DOCTYPE svg PUBLIC "-//W3C//DTD SVG 20010904//EN"
 "http://www.w3.org/TR/2001/REC-SVG-20010904/DTD/svg10.dtd">
<svg version="1.0" xmlns="http://www.w3.org/2000/svg"
 width="500.000000pt" height="500.000000pt" viewBox="0 0 500.000000 500.000000"
 preserveAspectRatio="xMidYMid meet">
<metadata>
Created by potrace 1.11, written by Peter Selinger 2001-2013
</metadata>
<g transform="translate(0.000000,500.000000) scale(0.100000,-0.100000)"
fill="#000000" stroke="none">
<path d="M813 3224 c-8 -4 -13 -26 -13 -60 l0 -54 -44 0 c-70 0 -76 -5 -76
-66 l0 -54 -44 0 c-80 0 -76 10 -76 -200 0 -211 -4 -200 79 -200 l48 0 -5 -51
c-6 -61 2 -69 74 -69 l51 0 -5 -51 c-3 -37 -1 -54 9 -60 8 -5 152 -9 321 -9
l307 0 3 240 c2 184 0 244 -10 257 -11 16 -34 18 -179 21 -222 4 -213 8 -213
-77 0 -78 3 -81 78 -81 l47 0 -3 -97 c-2 -54 -5 -99 -5 -99 -1 -1 -46 -4 -100
-6 l-98 -4 2 41 c4 64 -10 80 -70 79 l-51 0 0 163 0 163 60 0 60 0 0 60 0 60
239 0 239 0 4 60 c5 100 23 95 -320 97 -163 1 -303 -1 -309 -3z"/>
<path d="M1793 3224 c-8 -4 -13 -26 -13 -60 l0 -54 -44 0 c-70 0 -76 -5 -76
-66 l0 -54 -44 0 c-82 0 -76 25 -76 -320 0 -272 2 -309 16 -314 9 -3 72 -6
140 -6 l124 0 0 120 0 120 163 0 162 0 -3 -111 c-3 -86 -1 -114 10 -120 7 -5
70 -9 140 -9 l127 0 3 300 c2 233 0 304 -10 317 -9 13 -26 18 -63 17 l-50 0 2
40 c4 65 -10 81 -71 80 l-51 0 2 40 c5 80 4 81 -198 83 -98 1 -184 0 -190 -3z
m229 -205 c-6 -61 2 -69 73 -69 l50 0 -3 -97 c-2 -54 -5 -99 -5 -100 -1 0 -73
-3 -160 -5 l-157 -3 0 103 0 102 60 0 60 0 0 60 0 60 44 0 43 0 -5 -51z"/>
<path d="M2533 3224 c-10 -4 -13 -101 -13 -434 0 -381 2 -429 16 -434 9 -3 72
-6 140 -6 l124 0 0 240 0 240 43 0 42 0 -3 -111 c-3 -86 -1 -114 10 -120 7 -5
43 -9 81 -9 l67 0 0 120 0 120 43 0 42 0 -3 -232 c-2 -182 0 -233 10 -239 7
-5 70 -9 140 -9 l128 0 2 420 c2 330 0 423 -10 437 -11 15 -32 19 -118 21
-151 5 -154 4 -154 -63 l0 -55 -44 0 c-70 0 -76 -5 -76 -66 0 -45 -3 -54 -17
-54 -10 0 -29 -3 -41 -7 -22 -5 -24 -3 -21 38 4 68 -10 84 -71 83 l-51 0 2 40
c5 76 -3 81 -138 83 -65 1 -124 0 -130 -3z"/>
<path d="M3513 3224 c-10 -5 -13 -101 -13 -434 0 -381 2 -429 16 -434 9 -3
206 -6 439 -6 l423 0 4 60 c5 100 22 95 -312 95 l-290 0 0 103 0 102 239 0
239 0 4 60 c5 98 14 95 -252 95 l-230 0 0 103 0 102 299 0 299 0 4 60 c5 102
39 95 -440 97 -229 1 -423 -1 -429 -3z"/>
<path d="M1953 2535 c-40 -28 -55 -104 -60 -309 l-6 -189 -40 -59 c-22 -32
-54 -67 -72 -78 -39 -24 -90 -26 -99 -4 -11 29 -6 89 10 112 22 32 41 28 36
-8 -4 -25 0 -30 23 -36 71 -18 71 102 0 134 -36 17 -55 15 -92 -8 -43 -26 -63
-68 -63 -132 0 -93 53 -148 144 -148 57 0 85 11 130 50 l36 32 0 -26 c0 -15 8
-30 21 -36 38 -21 62 -4 99 65 49 94 60 100 60 36 0 -65 11 -86 51 -100 51
-17 76 -13 113 19 33 30 35 30 45 11 6 -11 27 -25 46 -31 30 -10 41 -9 75 8
36 17 40 18 55 3 10 -10 33 -16 60 -16 36 0 50 6 79 34 19 18 40 46 46 61 6
16 20 30 31 33 22 6 23 1 8 -42 -16 -44 0 -77 41 -86 39 -8 52 2 86 70 15 28
35 63 46 76 l19 24 -6 -46 c-7 -58 6 -94 44 -114 43 -22 73 -19 117 11 33 23
39 24 49 10 17 -22 62 -37 92 -30 24 6 25 5 18 -26 -4 -17 -21 -52 -37 -77
-86 -127 -125 -307 -79 -365 26 -32 81 -46 117 -29 48 21 67 89 72 251 l5 145
60 84 60 83 12 -30 c13 -30 56 -52 103 -52 23 0 64 37 143 129 27 31 33 22 19
-27 -15 -49 -2 -78 40 -87 39 -8 52 3 86 70 15 28 35 63 45 76 18 24 18 23 16
-39 -2 -56 1 -66 22 -83 48 -39 98 -37 150 6 29 25 30 25 40 6 13 -24 66 -43
98 -35 24 6 25 5 18 -26 -4 -17 -21 -52 -37 -77 -86 -127 -125 -307 -79 -365
26 -32 81 -46 117 -29 48 21 67 89 72 251 l5 145 53 74 c29 41 66 98 80 126
l28 52 -21 22 c-34 36 -54 23 -101 -64 l-42 -80 2 59 c1 50 -1 62 -19 73 -28
19 -44 10 -73 -44 -32 -60 -50 -67 -50 -18 0 27 8 44 29 66 29 29 74 39 86 19
3 -5 15 -10 26 -10 29 0 25 44 -7 69 -38 30 -101 28 -145 -4 -19 -14 -46 -33
-61 -42 -15 -10 -32 -28 -38 -41 -15 -33 -61 -92 -71 -92 -5 0 -9 33 -9 73 0
64 -3 76 -23 95 -13 12 -35 22 -49 22 -31 0 -74 -32 -84 -63 -7 -20 -9 -18
-19 17 -14 47 -53 81 -84 71 -20 -6 -41 -32 -114 -140 -42 -61 -72 -89 -87
-80 -7 4 -10 39 -9 97 1 71 -2 94 -15 109 -8 10 -20 19 -25 19 -19 0 -41 -32
-41 -60 0 -15 -7 -30 -15 -33 -8 -4 -32 -41 -55 -84 l-40 -78 2 59 c2 50 -1
62 -19 73 -28 19 -44 10 -73 -44 -32 -60 -50 -67 -50 -18 0 27 8 44 29 66 29
29 74 39 86 19 3 -5 15 -10 26 -10 29 0 25 44 -7 69 -32 25 -92 28 -132 7 -36
-20 -85 -70 -125 -130 -49 -73 -57 -71 -57 16 0 65 -3 77 -23 96 -13 12 -35
22 -49 22 -31 0 -74 -32 -84 -63 -7 -20 -9 -18 -19 17 -14 47 -53 81 -84 71
-20 -6 -42 -33 -114 -140 -58 -85 -87 -95 -87 -30 0 25 -6 39 -24 50 -32 21
-47 13 -76 -42 -32 -60 -50 -67 -50 -18 0 27 8 44 29 66 29 29 74 39 86 19 3
-5 15 -10 26 -10 29 0 25 44 -7 69 -34 27 -98 28 -139 2 -39 -25 -89 -75 -128
-130 -18 -25 -37 -44 -42 -42 -6 1 -9 26 -7 56 4 65 -17 112 -54 121 -37 10
-67 -8 -102 -62 -40 -60 -41 -51 -2 26 73 144 109 336 81 422 -25 76 -80 107
-128 73z m54 -162 c-4 -54 -13 -123 -21 -153 l-15 -55 4 115 c4 108 18 190 32
190 3 0 3 -44 0 -97z m1183 -845 c-7 -40 -19 -89 -28 -108 -15 -34 -16 -34
-20 -10 -7 43 39 212 55 197 3 -3 0 -39 -7 -79z m990 0 c-7 -40 -19 -89 -28
-108 -15 -34 -16 -34 -20 -10 -7 43 39 212 55 197 3 -3 0 -39 -7 -79z"/>
<path d="M3398 2266 c-14 -7 -24 -22 -26 -40 -6 -53 58 -91 104 -61 29 19 31
44 4 77 -24 31 -51 39 -82 24z"/>
</g>
</svg>
